:SAMPLES-PER-SECOND 30
:FRAME-RANGE 1-1390
:FULLY-SPECIFIED
:DEGREES
609
root  6.96658 37.9063 -44.1251 170.734 41.9605 175.891
RightUpLeg  -10.5125 -17.8341 8.69568
RightLeg  30.77 -12.5736 -8.21204
RightFoot  -18.6429 -0.768532 -10.043
RightToes  -2.9104e-010 0 -3.6325e-017
Spine  18.1764 -1.66273 -7.11151
Spine1  -2.00041 -7.86802 11.1531
HEad  -23.356 -57.1781 26.9121
LeftShoulder1  3.3482 -5.68972 -30.4076
LeftArm  78.6142 -31.6157 -80.3178
LeftForeArm  -6.47565 -16.6282 -12.7494
LeftHand  -0.0114018 3.55488 -0.530271
RightShoulder  13.6222 20.8729 48.8325
RightArm  45.0104 9.22162 25.7275
RightForeArm  19.941 23.3175 4.04292
RightHand  0.911842 5.74933 9.13813
LeftUpLeg  -97.3575 27.7965 -71.7594
LeftLeg  127.168 -4.44037 4.9797
LeftFoot  9.51485 1.89978 -10.6162
LeftToes  5.45371e-012 -1.3743e-010 1.09575e-010
610
root  7.58332 36.8018 -44.6174 171.342 44.8804 177.823
RightUpLeg  -12.6768 -12.2373 11.7833
RightLeg  40.1506 -14.8798 -13.3393
RightFoot  -23.0588 -1.15688 -9.72766
RightToes  -2.9104e-010 0 -3.6325e-017
Spine  18.2701 -2.02307 -5.57132
Spine1  -0.753073 -7.97012 10.939
HEad  -25.4135 -54.6826 27.1159
LeftShoulder1  3.33832 -5.2808 -32.0008
LeftArm  84.1568 -31.096 -78.5832
LeftForeArm  -10.5083 -18.0739 -11.4881
LeftHand  -0.043248 3.52976 1.58007
RightShoulder  14.176 21.1583 50.2295
RightArm  41.4368 10.6733 24.7905
RightForeArm  19.7978 21.6117 4.80845
RightHand  0.934687 5.5833 9.52567
LeftUpLeg  -96.6485 27.4515 -69.2562
LeftLeg  126.094 -9.58479 11.5574
LeftFoot  9.8352 0.390077 -2.40846
LeftToes  5.45371e-012 -1.3743e-010 1.09575e-010
611
root  8.26841 36.439 -45.0761 170.758 46.5483 178.044
RightUpLeg  -11.2633 -13.0886 11.9139
RightLeg  42.1815 -13.2026 -12.7854
RightFoot  -25.6927 -1.42697 -9.92403
RightToes  -2.9104e-010 0 -3.6325e-017
Spine  17.7478 -2.41447 -6.63573
Spine1  0.767931 -8.64347 11.8961
HEad  -24.9392 -53.0337 26.5174
LeftShoulder1  3.40809 -5.34262 -32.5248
LeftArm  87.9681 -31.1763 -78.3906
LeftForeArm  -15.5927 -19.1152 -10.6287
LeftHand  -0.0332049 3.16988 0.869137
RightShoulder  13.9655 20.9497 49.91
RightArm  39.5391 11.7826 24.6676
RightForeArm  19.2681 20.954 5.32491
RightHand  1.09096 6.27509 10.4622
LeftUpLeg  -94.6714 27.9367 -69.0739
LeftLeg  124.673 -10.96 13.8883
LeftFoot  6.56911 -0.415316 2.38164
LeftToes  5.45371e-012 -1.3743e-010 1.09575e-010
612
root  9.12679 36.6819 -45.4599 170.753 47.9215 178.438
RightUpLeg  -7.80441 -13.4747 12.0886
RightLeg  39.305 -12.4739 -11.0072
RightFoot  -25.8499 -1.48674 -10.2731
RightToes  -2.9104e-010 0 -3.6325e-017
Spine  17.2057 -2.54751 -7.81735
Spine1  0.356766 -8.88102 12.6695
HEad  -20.694 -53.8801 25.1057
LeftShoulder1  3.48638 -5.5798 -32.3821
LeftArm  76.2726 -33.0336 -80.285
LeftForeArm  -1.64324 -15.9613 -13.1166
LeftHand  -0.0285307 3.70214 0.61121
RightShoulder  13.4179 20.3924 49.0783
RightArm  43.5675 10.541 25.0694
RightForeArm  19.9588 22.2684 4.408
RightHand  0.925163 5.75442 9.27119
LeftUpLeg  -93.0047 27.7895 -69.0896
LeftLeg  125.901 -6.03326 7.23492
LeftFoot  4.74395 0.130488 -1.12756
LeftToes  5.45371e-012 -1.3743e-010 1.09575e-010
613
root  10.1143 37.3878 -45.7841 170.06 50.1388 177.14
RightUpLeg  -3.59687 -11.4645 11.4736
RightLeg  33.7948 -12.1926 -8.89764
RightFoot  -23.39 -1.21639 -9.99794
RightToes  -2.9104e-010 0 -3.6325e-017
Spine  15.7077 -2.53716 -10.098
Spine1  0.337504 -9.01479 12.9485
HEad  -18.2343 -54.2729 24.5663
LeftShoulder1  3.48054 -5.64003 -32.0654
LeftArm  75.3673 -31.9753 -80.3165
LeftForeArm  -0.159565 -15.7626 -13.2204
LeftHand  -0.0253837 3.72231 0.378438
RightShoulder  13.2634 20.2785 48.7445
RightArm  44.6951 8.89571 25.4184
RightForeArm  20.9411 23.132 4.02672
RightHand  0.884973 5.64973 8.94634
LeftUpLeg  -92.8627 27.3243 -70.9481
LeftLeg  127.454 -2.87145 3.03108
LeftFoot  4.87576 0.746135 -5.44334
LeftToes  5.45371e-012 -1.3743e-010 1.09575e-010
614
root  11.1317 38.4317 -46.0452 168.285 52.4712 174.771
RightUpLeg  0.351127 -9.743 9.72318
RightLeg  28.6713 -9.58691 -5.86947
RightFoot  -17.649 -0.538441 -7.59616
RightToes  -2.9104e-010 0 -3.6325e-017
Spine  14.2967 -2.50789 -12.5963
Spine1  0.305275 -9.08223 12.814
HEad  -15.5187 -54.3664 22.9484
LeftShoulder1  3.45027 -5.66833 -31.6163
LeftArm  84.0434 -29.5174 -79.3605
LeftForeArm  -9.14443 -18.2772 -11.1796
LeftHand  -0.0157837 2.97492 -0.0202174
RightShoulder  12.5326 19.1309 48.4091
RightArm  44.6561 7.78813 26.289
RightForeArm  21.1406 23.9059 4.00354
RightHand  0.93434 5.48714 9.61193
LeftUpLeg  -92.212 26.8453 -72.955
LeftLeg  128.798 -3.19599 3.25438
LeftFoot  5.96859 1.14929 -7.7815
LeftToes  5.45371e-012 -1.3743e-010 1.09575e-010
615
root  12.0343 39.5684 -46.3221 166.965 55.3765 173.685
RightUpLeg  3.21568 -10.0871 8.02288
RightLeg  25.7665 -4.87817 -2.78977
RightFoot  -9.06818 -0.000429823 -3.06749
RightToes  -2.9104e-010 0 -3.6325e-017
Spine  13.8815 -2.39877 -12.8381
Spine1  -0.289859 -8.67322 11.8814
HEad  -12.5257 -54.0019 20.9418
LeftShoulder1  3.4345 -5.7016 -31.3073
LeftArm  88.2857 -28.5378 -79.5708
LeftForeArm  -12.6459 -19.4018 -10.0965
LeftHand  -0.00215658 2.64504 -0.533303
RightShoulder  11.7267 17.8631 47.9971
RightArm  44.2408 6.54339 26.4804
RightForeArm  20.675 24.7234 4.2016
RightHand  0.945728 5.38032 9.83524
LeftUpLeg  -91.2947 26.2611 -73.6139
LeftLeg  129.446 -5.34964 5.59548
LeftFoot  7.19601 1.19384 -7.57733
LeftToes  5.45371e-012 -1.3743e-010 1.09575e-010
